<?xml version="1.0" encoding="UTF-8"?>
<!DOCTYPE svg PUBLIC "-//W3C//DTD SVG 1.1//EN" "http://www.w3.org/Graphics/SVG/1.1/DTD/svg11.dtd">
<!-- Creator: CorelDRAW -->
<svg xmlns="http://www.w3.org/2000/svg" xml:space="preserve" width="1.70666in" height="1.70666in" version="1.1" style="shape-rendering:geometricPrecision; text-rendering:geometricPrecision; image-rendering:optimizeQuality; fill-rule:evenodd; clip-rule:evenodd"
viewBox="0 0 1706.66 1706.66"
 xmlns:xlink="http://www.w3.org/1999/xlink"
 xmlns:xodm="http://www.corel.com/coreldraw/odm/2003">
 <defs>
  <style type="text/css">
   <![CDATA[
    .fil2 {fill:#0E9AA7}
    .fil4 {fill:#333333}
    .fil0 {fill:#CED07D}
    .fil3 {fill:#FE6F69}
    .fil1 {fill:#FFCB5B}
   ]]>
  </style>
 </defs>
 <g id="Layer_x0020_1">
  <metadata id="CorelCorpID_0Corel-Layer"/>
  <path class="fil0" d="M682.13 447.17l309.08 0 0 -151.45c-81.28,0 -66.14,17.05 -66.14,-139.36l-176.79 0c0,156.42 15.15,139.36 -66.17,139.36l0.02 151.45zm154.53 -83.91c-80.92,0 -80.92,-122.97 0,-122.97 80.94,0 80.94,122.97 0,122.97z"/>
  <path class="fil1" d="M1031.22 391.44l-0.02 75.72c0.02,11.04 -8.96,20 -20,20l-349.08 0c-11.04,0 -20,-8.96 -20,-20l0 -75.72 -618.79 0 0 1125.52 1626.65 0 0 -1125.52 -618.77 0zm-366.21 193.34l0 558.33c0,11.02 -8.95,20 -20,20l-470.83 0c-11.04,0 -20,-8.97 -20,-20l0 -558.33c0,-11.04 8.96,-20 20,-20l470.83 0c11.04,0 20,8.96 20,20zm223.09 59.79l637.48 0c26.33,0 26.32,40 0.01,40l-637.49 0c-26.33,0 -26.32,-40 0,-40zm0 225l637.48 0c26.32,0 26.32,40 0.01,40l-637.49 0c-26.33,0 -26.32,-40 0,-40zm0 225l637.48 0c26.32,0 26.32,40 0.01,40l-637.49 0c-26.33,0 -26.32,-40 0,-40zm0 224.98l637.48 0c26.32,0 26.32,40 0.01,40l-637.49 0c-26.33,0 -26.32,-40 0,-40zm-631.47 -63.2l315.3 0c26.32,0 26.33,40 0,40l-315.3 0c-26.33,0 -26.33,-40 0,-40zm-78.82 105.57l472.96 0c26.32,0 26.34,40 -0.01,40l-472.96 0c-26.33,0 -26.33,-40 0,-40z"/>
  <path class="fil1" d="M836.67 323.24c28.28,0 28.28,-42.97 0,-42.97 -28.28,0 -28.28,42.97 0,42.97z"/>
  <path class="fil2" d="M625.01 1123.1l0 -518.33 -430.83 0 0 518.33 45.42 0 0 -90.4c0,-66.17 53.82,-120 120,-120l100.02 -0.01c66.17,0 120,53.83 120,120l0 90.41 45.4 0zm-215.41 -446.86c56.4,0 102.29,45.89 102.29,102.29 0,56.41 -45.89,102.3 -102.29,102.3 -56.41,0 -102.3,-45.89 -102.3,-102.3 0,-56.4 45.89,-102.29 102.3,-102.29z"/>
  <path class="fil3" d="M409.6 840.83c81.99,0 81.98,-124.59 0,-124.59 -81.98,0 -81.99,124.59 0,124.59z"/>
  <path class="fil3" d="M539.61 1032.69c0,-44.11 -35.89,-79.98 -80,-79.98l-100.03 -0.01c-44.11,0 -80,35.87 -80,79.98l0 90.42 260.02 0 0 -90.42z"/>
  <path class="fil4" d="M1686.66 1573.63l-1666.65 0c-11.04,0 -20,-8.97 -20,-20l0 -1165.53c0,-11.04 8.96,-20 20,-20l658.77 0c11.04,0 20,8.96 20,20l0 75.72 309.08 0 0 -75.72c0,-11.04 8.97,-20 20,-20l658.8 0c11.04,0 20,8.96 20,20l0 1165.53c0,11.04 -8.96,19.99 -20,19.99zm-1646.65 -40.01l1626.65 0 0 -1125.52 -618.77 0 0 75.72c0,11.04 -8.97,20 -20,20l-349.09 0c-11.04,0 -20,-8.96 -20,-20l0 -75.72 -618.79 0 0 1125.52z"/>
  <path class="fil4" d="M1027.87 503.83l-349.08 0c-11.04,0 -20,-8.96 -20,-20l0 -191.45c0,-26.72 35.93,-20 66.17,-20l0 -119.36c0,-11.04 8.96,-20 20,-20l216.77 0c11.04,0 20,8.96 20,20l0 119.36c30.22,0 66.14,-6.72 66.14,20l0 191.44c0.02,11.04 -8.96,20 -20,20zm-329.08 -40l309.08 0 0 -151.45c-81.28,0 -66.14,17.05 -66.14,-139.36l-176.79 0c0,156.42 15.15,139.36 -66.17,139.36l0 151.45 0.02 0z"/>
  <path class="fil4" d="M588.6 1313.01l-315.3 0c-26.33,0 -26.33,-40 0,-40l315.3 0c26.32,0 26.33,40 0,40z"/>
  <path class="fil4" d="M667.43 1418.58l-472.96 0c-26.33,0 -26.33,-40 0,-40l472.96 0c26.32,0 26.34,40 -0.01,40z"/>
  <path class="fil4" d="M1542.26 701.24l-637.49 0c-26.33,0 -26.32,-40 0,-40l637.48 0c26.33,0 26.32,40 0.01,40z"/>
  <path class="fil4" d="M1542.26 926.24l-637.49 0c-26.33,0 -26.32,-40 0,-40l637.48 0c26.32,0 26.32,40 0.01,40z"/>
  <path class="fil4" d="M1542.26 1151.24l-637.49 0c-26.33,0 -26.32,-40 0,-40l637.48 0c26.32,0 26.32,40 0.01,40z"/>
  <path class="fil4" d="M1542.26 1376.22l-637.49 0c-26.33,0 -26.32,-40 0,-40l637.48 0c26.32,0 26.32,40 0.01,40z"/>
  <path class="fil4" d="M661.68 1179.78l-470.83 0c-11.04,0 -20,-8.97 -20,-20l0 -558.33c0,-11.04 8.96,-20 20,-20l470.83 0c11.04,0 20,8.96 20,20l0 558.33c0,11.02 -8.95,20 -20,20zm-450.83 -40.01l430.83 0 0 -518.33 -430.83 0 0 518.33z"/>
  <path class="fil4" d="M576.26 1179.78l-300 0c-11.04,0 -20,-8.97 -20,-20l0 -110.42c0,-66.17 53.82,-120 120,-120l100.02 -0.01c66.17,0 120,53.83 120,120l0 110.41c-0.02,11.03 -8.96,20 -20.02,20zm-280 -40.01l260.02 0 0 -90.42c0,-44.11 -35.89,-79.98 -80,-79.98l-100.03 -0.01c-44.11,0 -80,35.87 -80,79.98l0 90.42 0.01 0z"/>
  <path class="fil4" d="M426.26 897.49c-56.41,0 -102.3,-45.89 -102.3,-102.3 0,-56.4 45.89,-102.29 102.3,-102.29 56.4,0 102.29,45.89 102.29,102.29 0,56.41 -45.89,102.3 -102.29,102.3zm0 -164.58c-81.98,0 -81.99,124.59 0,124.59 81.99,0 81.98,-124.59 0,-124.59z"/>
  <path class="fil4" d="M853.33 379.93c-80.92,0 -80.92,-122.97 0,-122.97 80.94,0 80.94,122.97 0,122.97zm0 -82.98c-28.28,0 -28.28,42.97 0,42.97 28.28,0 28.28,-42.97 0,-42.97z"/>
 </g>
</svg>
